<?xml version="1.0" encoding="utf-8"?>
<!-- Generator: Adobe Illustrator 16.0.0, SVG Export Plug-In . SVG Version: 6.00 Build 0)  -->
<!DOCTYPE svg PUBLIC "-//W3C//DTD SVG 1.1//EN" "http://www.w3.org/Graphics/SVG/1.1/DTD/svg11.dtd">
<svg version="1.1" xmlns="http://www.w3.org/2000/svg" xmlns:xlink="http://www.w3.org/1999/xlink" x="0px" y="0px" width="111px"
	 height="49px" viewBox="0 0 111 49" enable-background="new 0 0 111 49" xml:space="preserve">
<g id="레이어_2">
	<circle fill="#DD000A" cx="6.476" cy="41.934" r="4.524"/>
	<g>
		<path d="M15.978,24.873v-0.121c0-12.324,9.484-21.989,22.291-21.989c8.639,0,14.196,3.625,17.942,8.819l-8.82,6.827
			c-2.417-3.021-5.195-4.954-9.243-4.954c-5.92,0-10.088,5.014-10.088,11.176v0.121c0,6.343,4.168,11.296,10.088,11.296
			c4.41,0,7.007-2.054,9.544-5.135l8.82,6.283c-3.987,5.497-9.363,9.544-18.727,9.544C25.704,46.741,15.978,37.498,15.978,24.873z"
			/>
		<path d="M63.46,3.608h12.384l10.088,16.371L96.021,3.608h12.384v42.287H96.746V21.61L85.932,38.163H85.69L74.938,21.731v24.164
			H63.46V3.608z"/>
	</g>
</g>
<g id="레이어_1">
</g>
</svg>
